<svg width="24" height="25" viewBox="0 0 24 25" fill="none" xmlns="http://www.w3.org/2000/svg">
<path d="M13 21.0896V23.5979L10 21.5912L7 23.5979V21.0896H6.5C4.567 21.0896 3 19.5174 3 17.5779V5.03645C3 3.3741 4.34315 2.02649 6 2.02649H20C20.5523 2.02649 21 2.4757 21 3.02981V20.0862C21 20.6404 20.5523 21.0896 20 21.0896H13ZM13 19.0829H19V16.073H6.5C5.67157 16.073 5 16.7468 5 17.5779C5 18.4091 5.67157 19.0829 6.5 19.0829H7V17.0763H13V19.0829ZM19 14.0663V4.03313H6V14.1018C6.1633 14.0785 6.33024 14.0663 6.5 14.0663H19ZM7 5.03645H9V7.04309H7V5.03645ZM7 8.04641H9V10.053H7V8.04641ZM7 11.0564H9V13.063H7V11.0564Z" fill="#8B949E"/>
</svg>
