<svg width="25" height="25" viewBox="0 0 25 25" fill="none" xmlns="http://www.w3.org/2000/svg">
<path d="M12.6117 2.4942C6.81562 2.49186 2.12109 7.18405 2.12109 12.9755C2.12109 17.5551 5.05781 21.4481 9.14766 22.8778C9.69844 23.0161 9.61406 22.6247 9.61406 22.3575V20.5411C6.43359 20.9137 6.30469 18.809 6.09141 18.4575C5.66016 17.7215 4.64062 17.534 4.94531 17.1825C5.66953 16.8098 6.40781 17.2762 7.26328 18.5395C7.88203 19.4559 9.08906 19.3012 9.70078 19.1489C9.83437 18.5981 10.1203 18.1059 10.5141 17.7239C7.21875 17.1333 5.84531 15.1223 5.84531 12.7317C5.84531 11.5715 6.22734 10.5051 6.97734 9.64498C6.49922 8.22702 7.02187 7.01295 7.09219 6.83248C8.45391 6.71061 9.86953 7.80748 9.97969 7.8942C10.7531 7.68561 11.6367 7.57545 12.6258 7.57545C13.6195 7.57545 14.5055 7.6903 15.2859 7.90123C15.5508 7.69967 16.8633 6.75748 18.1289 6.87233C18.1969 7.0528 18.7078 8.23873 18.2578 9.63795C19.0172 10.5005 19.4039 11.5762 19.4039 12.7387C19.4039 15.134 18.0211 17.1473 14.7164 17.7286C14.9995 18.0069 15.2242 18.3389 15.3775 18.7051C15.5309 19.0713 15.6097 19.4644 15.6094 19.8614V22.4981C15.6281 22.709 15.6094 22.9176 15.9609 22.9176C20.1117 21.5184 23.1 17.5973 23.1 12.9778C23.1 7.18405 18.4031 2.4942 12.6117 2.4942Z" fill="#F1F4F5"/>
</svg>
