<svg width="25" height="24" viewBox="0 0 25 24" fill="none" xmlns="http://www.w3.org/2000/svg">
<path d="M2.40564 12.204C2.40564 9.915 2.40564 8.771 2.92564 7.823C3.44364 6.874 4.39264 6.286 6.28964 5.108L8.28964 3.867C10.2946 2.622 11.2976 2 12.4056 2C13.5136 2 14.5156 2.622 16.5216 3.867L18.5216 5.108C20.4186 6.286 21.3676 6.874 21.8866 7.823C22.4056 8.772 22.4056 9.915 22.4056 12.203V13.725C22.4056 17.625 22.4056 19.576 21.2336 20.788C20.0616 22 18.1766 22 14.4056 22H10.4056C6.63464 22 4.74864 22 3.57764 20.788C2.40664 19.576 2.40564 17.626 2.40564 13.725V12.204Z" stroke="white" stroke-width="1.5"/>
<path d="M12.4056 15V18" stroke="white" stroke-width="1.5" stroke-linecap="round"/>
</svg>
