<svg width="25" height="25" viewBox="0 0 25 25" fill="none" xmlns="http://www.w3.org/2000/svg">
<path d="M21.2461 3.60559H3.99609C3.58125 3.60559 3.24609 3.94075 3.24609 4.35559V21.6056C3.24609 22.0204 3.58125 22.3556 3.99609 22.3556H21.2461C21.6609 22.3556 21.9961 22.0204 21.9961 21.6056V4.35559C21.9961 3.94075 21.6609 3.60559 21.2461 3.60559ZM8.80781 19.5829H6.02578V10.6345H8.80781V19.5829ZM7.41797 9.41106C7.09905 9.41106 6.78729 9.31649 6.52211 9.1393C6.25694 8.96212 6.05026 8.71028 5.92821 8.41564C5.80617 8.12099 5.77423 7.79677 5.83645 7.48398C5.89867 7.17118 6.05225 6.88386 6.27776 6.65835C6.50327 6.43284 6.79059 6.27926 7.10339 6.21704C7.41618 6.15482 7.7404 6.18676 8.03505 6.3088C8.32969 6.43085 8.58153 6.63753 8.75871 6.9027C8.9359 7.16788 9.03047 7.47964 9.03047 7.79856C9.02812 8.68918 8.30625 9.41106 7.41797 9.41106ZM19.2234 19.5829H16.4437V15.2306C16.4437 14.1923 16.425 12.8587 14.9977 12.8587C13.5516 12.8587 13.3289 13.9884 13.3289 15.1556V19.5829H10.5516V10.6345H13.2188V11.8579H13.2562C13.6266 11.1548 14.5336 10.4118 15.8883 10.4118C18.7055 10.4118 19.2234 12.2657 19.2234 14.6751V19.5829Z" fill="#F1F4F5"/>
</svg>
