<svg width="45" height="45" viewBox="0 0 45 45" fill="none" xmlns="http://www.w3.org/2000/svg">
<g clip-path="url(#clip0_195_137)">
<rect width="45" height="45" rx="8" fill="#F1F4F5"/>
<path d="M15 29.018C13.932 29.018 13.398 28.898 13.398 28.658L13.02 21.44L10.824 28.748C10.776 28.892 10.368 28.964 9.6 28.964C8.832 28.964 8.436 28.898 8.412 28.766L6.144 21.368L5.892 28.55C5.88 28.73 5.652 28.856 5.208 28.928C4.764 28.988 4.392 29.018 4.092 29.018C3.804 29.018 3.522 29 3.246 28.964C2.67 28.88 2.388 28.73 2.4 28.514L2.814 16.814C2.814 16.526 3.546 16.382 5.01 16.382C5.442 16.382 5.97 16.418 6.594 16.49C7.218 16.55 7.566 16.676 7.638 16.868L9.654 22.538L11.418 16.85C11.526 16.538 12.354 16.382 13.902 16.382C14.346 16.382 14.874 16.418 15.486 16.49C16.11 16.55 16.422 16.664 16.422 16.832L16.944 28.64C16.944 28.772 16.71 28.868 16.242 28.928C15.774 28.988 15.36 29.018 15 29.018ZM24.1481 28.712C24.1481 28.952 23.5541 29.072 22.3661 29.072C21.1781 29.072 20.5841 28.952 20.5841 28.712V19.676H18.4241C18.2201 19.676 18.0761 19.4 17.9921 18.848C17.9561 18.584 17.9381 18.314 17.9381 18.038C17.9381 17.762 17.9561 17.492 17.9921 17.228C18.0761 16.676 18.2201 16.4 18.4241 16.4H26.2541C26.4581 16.4 26.6021 16.676 26.6861 17.228C26.7221 17.492 26.7401 17.762 26.7401 18.038C26.7401 18.314 26.7221 18.584 26.6861 18.848C26.6021 19.4 26.4581 19.676 26.2541 19.676H24.1481V28.712ZM40.3652 29.018C39.2972 29.018 38.7632 28.898 38.7632 28.658L38.3852 21.44L36.1892 28.748C36.1412 28.892 35.7332 28.964 34.9652 28.964C34.1972 28.964 33.8012 28.898 33.7772 28.766L31.5092 21.368L31.2572 28.55C31.2452 28.73 31.0172 28.856 30.5732 28.928C30.1292 28.988 29.7572 29.018 29.4572 29.018C29.1692 29.018 28.8872 29 28.6112 28.964C28.0352 28.88 27.7532 28.73 27.7652 28.514L28.1792 16.814C28.1792 16.526 28.9112 16.382 30.3752 16.382C30.8072 16.382 31.3352 16.418 31.9592 16.49C32.5832 16.55 32.9312 16.676 33.0032 16.868L35.0192 22.538L36.7832 16.85C36.8912 16.538 37.7192 16.382 39.2672 16.382C39.7112 16.382 40.2392 16.418 40.8512 16.49C41.4752 16.55 41.7872 16.664 41.7872 16.832L42.3092 28.64C42.3092 28.772 42.0752 28.868 41.6072 28.928C41.1392 28.988 40.7252 29.018 40.3652 29.018Z" fill="#222222"/>
</g>
<defs>
<clipPath id="clip0_195_137">
<rect width="45" height="45" fill="white"/>
</clipPath>
</defs>
</svg>
