<svg width="25" height="24" viewBox="0 0 25 24" fill="none" xmlns="http://www.w3.org/2000/svg">
<path d="M13.4056 21V23.5L10.4056 21.5L7.40564 23.5V21H6.90564C4.97264 21 3.40564 19.433 3.40564 17.5V5C3.40564 3.34315 4.74879 2 6.40564 2H20.4056C20.9579 2 21.4056 2.44772 21.4056 3V20C21.4056 20.5523 20.9579 21 20.4056 21H13.4056ZM13.4056 19H19.4056V16H6.90564C6.07721 16 5.40564 16.6716 5.40564 17.5C5.40564 18.3284 6.07721 19 6.90564 19H7.40564V17H13.4056V19ZM19.4056 14V4H6.40564V14.0354C6.56894 14.0121 6.73588 14 6.90564 14H19.4056ZM7.40564 5H9.40564V7H7.40564V5ZM7.40564 8H9.40564V10H7.40564V8ZM7.40564 11H9.40564V13H7.40564V11Z" fill="white"/>
</svg>
