<svg width="24" height="24" viewBox="0 0 24 24" fill="none" xmlns="http://www.w3.org/2000/svg">
<path d="M12 6.75C12.4973 6.75 12.9742 6.55246 13.3258 6.20083C13.6775 5.84919 13.875 5.37228 13.875 4.875C13.875 4.37772 13.6775 3.90081 13.3258 3.54917C12.9742 3.19754 12.4973 3 12 3C11.5027 3 11.0258 3.19754 10.6742 3.54917C10.3225 3.90081 10.125 4.37772 10.125 4.875C10.125 5.37228 10.3225 5.84919 10.6742 6.20083C11.0258 6.55246 11.5027 6.75 12 6.75Z" fill="black"/>
<path d="M12 6.75C12.8955 6.75 13.695 7.323 13.98 8.1735L14.1105 8.5635C14.1275 8.61339 14.1323 8.66662 14.1245 8.71875C14.1168 8.77088 14.0966 8.82038 14.0658 8.86312C14.0349 8.90586 13.9943 8.94059 13.9473 8.96441C13.9002 8.98822 13.8482 9.00043 13.7955 9H10.2105C10.158 8.99976 10.1063 8.98713 10.0597 8.96312C10.013 8.93912 9.97268 8.90443 9.94198 8.86187C9.91127 8.81932 9.89105 8.77011 9.88297 8.71826C9.8749 8.66641 9.87919 8.61338 9.8955 8.5635L10.026 8.1735C10.1649 7.75843 10.4308 7.39759 10.7862 7.1421C11.1416 6.88661 11.5683 6.74943 12.006 6.75H12ZM7.5 12.75C7.5 12.5511 7.57902 12.3603 7.71967 12.2197C7.86032 12.079 8.05109 12 8.25 12H15.75C15.9489 12 16.1397 12.079 16.2803 12.2197C16.421 12.3603 16.5 12.5511 16.5 12.75C16.5 12.9489 16.421 13.1397 16.2803 13.2803C16.1397 13.421 15.9489 13.5 15.75 13.5H8.25C8.05109 13.5 7.86032 13.421 7.71967 13.2803C7.57902 13.1397 7.5 12.9489 7.5 12.75ZM7.5 15.75C7.5 15.5511 7.57902 15.3603 7.71967 15.2197C7.86032 15.079 8.05109 15 8.25 15H15.75C15.9489 15 16.1397 15.079 16.2803 15.2197C16.421 15.3603 16.5 15.5511 16.5 15.75C16.5 15.9489 16.421 16.1397 16.2803 16.2803C16.1397 16.421 15.9489 16.5 15.75 16.5H8.25C8.05109 16.5 7.86032 16.421 7.71967 16.2803C7.57902 16.1397 7.5 15.9489 7.5 15.75ZM8.25 18C8.05109 18 7.86032 18.079 7.71967 18.2197C7.57902 18.3603 7.5 18.5511 7.5 18.75C7.5 18.9489 7.57902 19.1397 7.71967 19.2803C7.86032 19.421 8.05109 19.5 8.25 19.5H11.25C11.4489 19.5 11.6397 19.421 11.7803 19.2803C11.921 19.1397 12 18.9489 12 18.75C12 18.5511 11.921 18.3603 11.7803 18.2197C11.6397 18.079 11.4489 18 11.25 18H8.25Z" fill="black"/>
<path fill-rule="evenodd" clip-rule="evenodd" d="M3.49499 2.45999C3.00449 3.42299 3.00449 4.67999 3.00449 7.19999V16.8C3.00449 19.32 3.00449 20.58 3.49499 21.54C3.92794 22.3847 4.6153 23.072 5.45999 23.505C6.42299 23.9955 7.67999 23.9955 10.2 23.9955H13.8C16.32 23.9955 17.58 23.9955 18.54 23.505C19.3859 23.0737 20.0737 22.3859 20.505 21.54C20.9955 20.577 20.9955 19.32 20.9955 16.8V7.19999C20.9955 4.67999 20.9955 3.41999 20.505 2.45999C20.0737 1.61408 19.3859 0.926273 18.54 0.494986C17.577 0.00448613 16.32 0.00448608 13.8 0.00448608H10.2C7.67999 0.00448608 6.41999 0.00448613 5.45999 0.494986C4.6153 0.927944 3.92794 1.6153 3.49499 2.45999ZM13.8 1.50299H10.2C8.91449 1.50299 8.03999 1.50299 7.36499 1.55999C6.70799 1.61249 6.37049 1.70999 6.13649 1.82999C5.57203 2.1176 5.1131 2.57653 4.82549 3.14099C4.70549 3.37499 4.60799 3.71099 4.55549 4.36949C4.49999 5.04449 4.49849 5.91449 4.49849 7.20449V16.8045C4.49849 18.09 4.49999 18.9645 4.55549 19.6395C4.60949 20.2965 4.70699 20.634 4.82549 20.868C5.11349 21.432 5.57249 21.891 6.13649 22.179C6.37049 22.299 6.70799 22.3965 7.36499 22.449C8.03999 22.503 8.90999 22.5045 10.2 22.5045H13.8C15.0855 22.5045 15.96 22.5045 16.635 22.449C17.292 22.395 17.6295 22.2975 17.8635 22.179C18.4275 21.891 18.8865 21.432 19.1745 20.868C19.2945 20.634 19.392 20.2965 19.4445 19.638C19.5 18.963 19.5015 18.093 19.5015 16.803V7.20299C19.5015 5.91899 19.5 5.04299 19.4445 4.36799C19.3905 3.71249 19.293 3.37499 19.1745 3.14099C18.8869 2.57653 18.4279 2.1176 17.8635 1.82999C17.6295 1.70999 17.292 1.61249 16.635 1.55999C15.96 1.50449 15.09 1.50299 13.8 1.50299Z" fill="black"/>
</svg>
