<svg width="25" height="24" viewBox="0 0 25 24" fill="none" xmlns="http://www.w3.org/2000/svg">
<path d="M12.4056 6.75C12.9029 6.75 13.3798 6.55246 13.7315 6.20083C14.0831 5.84919 14.2806 5.37228 14.2806 4.875C14.2806 4.37772 14.0831 3.90081 13.7315 3.54917C13.3798 3.19754 12.9029 3 12.4056 3C11.9084 3 11.4314 3.19754 11.0798 3.54917C10.7282 3.90081 10.5306 4.37772 10.5306 4.875C10.5306 5.37228 10.7282 5.84919 11.0798 6.20083C11.4314 6.55246 11.9084 6.75 12.4056 6.75Z" fill="white"/>
<path d="M12.4056 6.75C13.3011 6.75 14.1006 7.323 14.3856 8.1735L14.5161 8.5635C14.5332 8.61339 14.538 8.66662 14.5302 8.71875C14.5224 8.77088 14.5022 8.82038 14.4714 8.86312C14.4406 8.90586 14.3999 8.94059 14.3529 8.96441C14.3059 8.98822 14.2538 9.00043 14.2011 9H10.6161C10.5637 8.99976 10.512 8.98713 10.4653 8.96312C10.4187 8.93912 10.3783 8.90443 10.3476 8.86187C10.3169 8.81932 10.2967 8.77011 10.2886 8.71826C10.2805 8.66641 10.2848 8.61338 10.3011 8.5635L10.4316 8.1735C10.5705 7.75843 10.8365 7.39759 11.1918 7.1421C11.5472 6.88661 11.974 6.74943 12.4116 6.75H12.4056ZM7.90564 12.75C7.90564 12.5511 7.98466 12.3603 8.12531 12.2197C8.26596 12.079 8.45673 12 8.65564 12H16.1556C16.3546 12 16.5453 12.079 16.686 12.2197C16.8266 12.3603 16.9056 12.5511 16.9056 12.75C16.9056 12.9489 16.8266 13.1397 16.686 13.2803C16.5453 13.421 16.3546 13.5 16.1556 13.5H8.65564C8.45673 13.5 8.26596 13.421 8.12531 13.2803C7.98466 13.1397 7.90564 12.9489 7.90564 12.75ZM7.90564 15.75C7.90564 15.5511 7.98466 15.3603 8.12531 15.2197C8.26596 15.079 8.45673 15 8.65564 15H16.1556C16.3546 15 16.5453 15.079 16.686 15.2197C16.8266 15.3603 16.9056 15.5511 16.9056 15.75C16.9056 15.9489 16.8266 16.1397 16.686 16.2803C16.5453 16.421 16.3546 16.5 16.1556 16.5H8.65564C8.45673 16.5 8.26596 16.421 8.12531 16.2803C7.98466 16.1397 7.90564 15.9489 7.90564 15.75ZM8.65564 18C8.45673 18 8.26596 18.079 8.12531 18.2197C7.98466 18.3603 7.90564 18.5511 7.90564 18.75C7.90564 18.9489 7.98466 19.1397 8.12531 19.2803C8.26596 19.421 8.45673 19.5 8.65564 19.5H11.6556C11.8546 19.5 12.0453 19.421 12.186 19.2803C12.3266 19.1397 12.4056 18.9489 12.4056 18.75C12.4056 18.5511 12.3266 18.3603 12.186 18.2197C12.0453 18.079 11.8546 18 11.6556 18H8.65564Z" fill="white"/>
<path fill-rule="evenodd" clip-rule="evenodd" d="M3.90063 2.45999C3.41013 3.42299 3.41013 4.67999 3.41013 7.19999V16.8C3.41013 19.32 3.41013 20.58 3.90063 21.54C4.33358 22.3847 5.02094 23.072 5.86563 23.505C6.82863 23.9955 8.08563 23.9955 10.6056 23.9955H14.2056C16.7256 23.9955 17.9856 23.9955 18.9456 23.505C19.7915 23.0737 20.4793 22.3859 20.9106 21.54C21.4011 20.577 21.4011 19.32 21.4011 16.8V7.19999C21.4011 4.67999 21.4011 3.41999 20.9106 2.45999C20.4793 1.61408 19.7915 0.926273 18.9456 0.494986C17.9826 0.00448613 16.7256 0.00448608 14.2056 0.00448608H10.6056C8.08563 0.00448608 6.82563 0.00448613 5.86563 0.494986C5.02094 0.927944 4.33358 1.6153 3.90063 2.45999ZM14.2056 1.50299H10.6056C9.32013 1.50299 8.44563 1.50299 7.77063 1.55999C7.11363 1.61249 6.77613 1.70999 6.54213 1.82999C5.97766 2.1176 5.51874 2.57653 5.23113 3.14099C5.11113 3.37499 5.01363 3.71099 4.96113 4.36949C4.90563 5.04449 4.90413 5.91449 4.90413 7.20449V16.8045C4.90413 18.09 4.90563 18.9645 4.96113 19.6395C5.01513 20.2965 5.11263 20.634 5.23113 20.868C5.51913 21.432 5.97813 21.891 6.54213 22.179C6.77613 22.299 7.11363 22.3965 7.77063 22.449C8.44563 22.503 9.31563 22.5045 10.6056 22.5045H14.2056C15.4911 22.5045 16.3656 22.5045 17.0406 22.449C17.6976 22.395 18.0351 22.2975 18.2691 22.179C18.8331 21.891 19.2921 21.432 19.5801 20.868C19.7001 20.634 19.7976 20.2965 19.8501 19.638C19.9056 18.963 19.9071 18.093 19.9071 16.803V7.20299C19.9071 5.91899 19.9056 5.04299 19.8501 4.36799C19.7961 3.71249 19.6986 3.37499 19.5801 3.14099C19.2925 2.57653 18.8336 2.1176 18.2691 1.82999C18.0351 1.70999 17.6976 1.61249 17.0406 1.55999C16.3656 1.50449 15.4956 1.50299 14.2056 1.50299Z" fill="white"/>
</svg>
