<svg width="71" height="71" viewBox="0 0 71 71" fill="none" xmlns="http://www.w3.org/2000/svg">
<path d="M53.7229 0.861084H16.5354C7.47448 0.861084 0.12915 8.20641 0.12915 17.2673V54.4548C0.12915 63.5158 7.47448 70.8611 16.5354 70.8611H53.7229C62.7838 70.8611 70.1292 63.5158 70.1292 54.4548V17.2673C70.1292 8.20641 62.7838 0.861084 53.7229 0.861084Z" fill="#242938"/>
<path fill-rule="evenodd" clip-rule="evenodd" d="M22.8245 30.9392C24.4651 24.3767 28.5667 21.0955 35.1292 21.0955C44.9729 21.0955 46.2034 28.4783 51.1252 29.7087C54.4065 30.5294 57.2776 29.2989 59.7385 26.0173C58.0979 32.5798 53.9963 35.8611 47.4338 35.8611C37.5901 35.8611 36.3596 28.4783 31.4377 27.2478C28.1565 26.4275 25.2854 27.658 22.8245 30.9392ZM10.5198 45.7048C12.1604 39.1423 16.262 35.8611 22.8245 35.8611C32.6682 35.8611 33.8987 43.2439 38.8206 44.4744C42.1018 45.295 44.9729 44.0646 47.4338 40.783C45.7932 47.3455 41.6917 50.6267 35.1292 50.6267C25.2854 50.6267 24.0549 43.2439 19.1331 42.0134C15.8518 41.1928 12.9807 42.4232 10.5198 45.7048Z" fill="url(#paint0_linear_81_943)"/>
<defs>
<linearGradient id="paint0_linear_81_943" x1="23.7815" y1="21.0955" x2="44.8362" y2="51.5837" gradientUnits="userSpaceOnUse">
<stop stop-color="#32B1C1"/>
<stop offset="1" stop-color="#14C6B7"/>
</linearGradient>
</defs>
</svg>
