<svg width="71" height="71" viewBox="0 0 71 71" fill="none" xmlns="http://www.w3.org/2000/svg">
<path d="M53.7229 0.861084H16.5354C7.47448 0.861084 0.12915 8.20641 0.12915 17.2673V54.4548C0.12915 63.5158 7.47448 70.8611 16.5354 70.8611H53.7229C62.7838 70.8611 70.1292 63.5158 70.1292 54.4548V17.2673C70.1292 8.20641 62.7838 0.861084 53.7229 0.861084Z" fill="url(#paint0_linear_81_947)"/>
<g filter="url(#filter0_d_81_947)">
<path d="M36.2147 54.4978C44.3292 54.4978 49.2191 50.5244 49.2191 43.9712C49.2191 39.0174 45.7303 35.4312 40.5495 34.8633V34.6571C44.3558 34.0378 47.3425 30.5031 47.3425 26.5557C47.3425 20.9311 42.9022 17.2673 36.1354 17.2673H20.9104V54.4978H36.2147ZM26.8311 21.9888H34.7081C38.9901 21.9888 41.4218 23.8982 41.4218 27.3555C41.4218 31.045 38.5936 33.1089 33.4658 33.1089H26.8311V21.9888ZM26.8311 49.7763V37.5211H34.655C40.2588 37.5211 43.1663 39.585 43.1663 43.61C43.1663 47.6348 40.3381 49.7763 34.9987 49.7763H26.8311Z" fill="url(#paint1_linear_81_947)"/>
<path d="M36.2147 54.4978C44.3292 54.4978 49.2191 50.5244 49.2191 43.9712C49.2191 39.0174 45.7303 35.4312 40.5495 34.8633V34.6571C44.3558 34.0378 47.3425 30.5031 47.3425 26.5557C47.3425 20.9311 42.9022 17.2673 36.1354 17.2673H20.9104V54.4978H36.2147ZM26.8311 21.9888H34.7081C38.9901 21.9888 41.4218 23.8982 41.4218 27.3555C41.4218 31.045 38.5936 33.1089 33.4658 33.1089H26.8311V21.9888ZM26.8311 49.7763V37.5211H34.655C40.2588 37.5211 43.1663 39.585 43.1663 43.61C43.1663 47.6348 40.3381 49.7763 34.9987 49.7763H26.8311Z" stroke="white" stroke-width="0.125"/>
</g>
<defs>
<filter id="filter0_d_81_947" x="19.8479" y="16.4548" width="30.4336" height="39.3555" filterUnits="userSpaceOnUse" color-interpolation-filters="sRGB">
<feFlood flood-opacity="0" result="BackgroundImageFix"/>
<feColorMatrix in="SourceAlpha" type="matrix" values="0 0 0 0 0 0 0 0 0 0 0 0 0 0 0 0 0 0 127 0" result="hardAlpha"/>
<feOffset dy="0.25"/>
<feGaussianBlur stdDeviation="0.5"/>
<feColorMatrix type="matrix" values="0 0 0 0 0 0 0 0 0 0 0 0 0 0 0 0 0 0 0.15 0"/>
<feBlend mode="normal" in2="BackgroundImageFix" result="effect1_dropShadow_81_947"/>
<feBlend mode="normal" in="SourceGraphic" in2="effect1_dropShadow_81_947" result="shape"/>
</filter>
<linearGradient id="paint0_linear_81_947" x1="0.12915" y1="0.861084" x2="70.1292" y2="70.8611" gradientUnits="userSpaceOnUse">
<stop stop-color="#9013FE"/>
<stop offset="1" stop-color="#6B11F4"/>
</linearGradient>
<linearGradient id="paint1_linear_81_947" x1="23.5882" y1="19.7179" x2="40.7458" y2="48.7356" gradientUnits="userSpaceOnUse">
<stop stop-color="white"/>
<stop offset="1" stop-color="#F1E5FC"/>
</linearGradient>
</defs>
</svg>
