<svg width="71" height="71" viewBox="0 0 71 71" fill="none" xmlns="http://www.w3.org/2000/svg">
<path d="M53.7607 0.775879H16.5732C7.51232 0.775879 0.166992 8.12121 0.166992 17.1821V54.3696C0.166992 63.4305 7.51232 70.7759 16.5732 70.7759H53.7607C62.8217 70.7759 70.167 63.4305 70.167 54.3696V17.1821C70.167 8.12121 62.8217 0.775879 53.7607 0.775879Z" fill="#E14E1D"/>
<path d="M13.292 11.1665L15.6463 37.5787H45.9186L44.9027 48.9072L35.1558 51.5426L25.4271 48.911L24.7766 41.637H16.01L17.2637 55.6592L35.1539 60.6281L53.0668 55.6592L55.4684 28.8456H23.6345L22.8352 19.9015H56.2597L57.042 11.1665H13.292Z" fill="white"/>
<path d="M35.167 11.1665H13.292L15.6463 37.5787H35.167V28.8456H23.6345L22.8352 19.9015H35.167V11.1665ZM35.167 51.5387L35.1558 51.5426L25.4271 48.911L24.7766 41.637H16.01L17.2637 55.6592L35.1539 60.6281L35.1673 60.6242L35.167 51.5387Z" fill="#EBEBEB"/>
</svg>
