<svg width="70" height="71" viewBox="0 0 70 71" fill="none" xmlns="http://www.w3.org/2000/svg">
<path d="M53.5938 0.775879H16.4062C7.34533 0.775879 0 8.12121 0 17.1821V54.3696C0 63.4305 7.34533 70.7759 16.4062 70.7759H53.5938C62.6547 70.7759 70 63.4305 70 54.3696V17.1821C70 8.12121 62.6547 0.775879 53.5938 0.775879Z" fill="#242938"/>
<path fill-rule="evenodd" clip-rule="evenodd" d="M59.0204 22.1899C59.0381 22.2566 59.047 22.3247 59.0472 22.3941V33.1126C59.0472 33.2501 59.0114 33.3852 58.9436 33.5042C58.8759 33.6229 58.7781 33.7216 58.66 33.7904L49.788 38.9699V49.2361C49.7885 49.3729 49.7532 49.5075 49.6856 49.6264C49.618 49.7454 49.5205 49.8446 49.4028 49.9142L30.8834 60.7246C30.841 60.7489 30.7948 60.7645 30.7486 60.7812C30.7311 60.7872 30.715 60.7979 30.6966 60.8028C30.5672 60.8374 30.431 60.8374 30.3015 60.8028C30.2805 60.7968 30.2611 60.785 30.2408 60.7774C30.1984 60.7618 30.1541 60.7481 30.1137 60.7246L11.5981 49.9142C11.4802 49.8453 11.3826 49.7465 11.3148 49.6279C11.2468 49.5085 11.211 49.3735 11.2109 49.2361V17.0807C11.2113 17.0101 11.2203 16.9418 11.238 16.8756C11.2435 16.8529 11.2571 16.8324 11.2648 16.81C11.2793 16.769 11.2927 16.7271 11.314 16.6888C11.3285 16.6634 11.3496 16.6429 11.3671 16.6197C11.3889 16.5882 11.4095 16.556 11.4354 16.5286C11.4573 16.5062 11.4866 16.4895 11.5114 16.4701C11.5393 16.4466 11.5645 16.4211 11.5962 16.4026H11.5973L20.8551 10.9975C20.9721 10.9293 21.1051 10.8934 21.2405 10.8934C21.3759 10.8934 21.5089 10.9293 21.6259 10.9975L30.8842 16.4026H30.8861C30.9168 16.4222 30.943 16.4466 30.9709 16.469C30.9958 16.4887 31.0237 16.5062 31.0458 16.5278C31.0729 16.556 31.0923 16.5882 31.1153 16.6197C31.1317 16.6429 31.1538 16.6634 31.1672 16.6888C31.1894 16.7279 31.202 16.769 31.2175 16.81C31.2252 16.8324 31.2386 16.8529 31.2443 16.8764C31.262 16.9433 31.271 17.0114 31.2714 17.0807V37.1647L38.9862 32.6603V22.3927C38.9862 22.3244 38.9957 22.2552 39.0132 22.1899C39.0201 22.1663 39.0324 22.1458 39.0403 22.1234C39.0556 22.0824 39.069 22.0403 39.0904 22.0023C39.1048 21.9768 39.1259 21.9563 39.1423 21.9328C39.1655 21.9017 39.1847 21.8694 39.2118 21.842C39.2339 21.8196 39.2618 21.8029 39.287 21.7833C39.3157 21.76 39.3408 21.7346 39.3717 21.716H39.3728L48.632 16.3107C48.7488 16.2423 48.8818 16.2062 49.0172 16.2062C49.1526 16.2062 49.2856 16.2423 49.4025 16.3107L58.6608 21.716C58.6936 21.7357 58.7185 21.7597 58.7475 21.7824C58.7716 21.8018 58.7995 21.8196 58.8216 21.841C58.8487 21.8694 58.8678 21.9017 58.8911 21.9328C58.9083 21.9563 58.9296 21.9766 58.943 22.0023C58.9652 22.0406 58.9777 22.0824 58.993 22.1234C59.0018 22.1458 59.0146 22.1663 59.0204 22.1899ZM57.5036 32.6603V23.7471L54.2637 25.6382L49.7878 28.2514V37.1647L57.5045 32.6603H57.5036ZM48.2453 48.7838V39.8649L43.8427 42.4147L31.2703 49.6906V58.6935L48.2453 48.7838ZM12.7542 18.4336V48.7838L29.7273 58.6927V49.6914L20.8603 44.6027L20.8575 44.6008L20.8534 44.5989C20.8236 44.5814 20.7987 44.556 20.7706 44.5344C20.7465 44.5149 20.7186 44.4994 20.6976 44.4777L20.6957 44.475C20.6705 44.4504 20.653 44.4203 20.632 44.3927C20.6128 44.3665 20.5896 44.344 20.5743 44.3167L20.5732 44.3137C20.5557 44.2844 20.545 44.2492 20.5327 44.2161C20.5201 44.1868 20.5037 44.1595 20.4961 44.128V44.1269C20.4865 44.09 20.4846 44.0509 20.4805 44.0126C20.4766 43.9834 20.469 43.9541 20.469 43.9249V22.9383L15.9942 20.3239L12.7542 18.4345V18.4336ZM21.2417 12.578L13.528 17.081L21.2398 21.5834L28.9527 17.0799L21.2398 12.5783L21.2417 12.578ZM25.2533 40.6775L29.7284 38.0654V18.4336L26.4882 20.325L22.0125 22.938V42.57L25.2533 40.6775ZM49.0175 17.8914L41.3044 22.3941L49.0175 26.8965L56.7293 22.393L49.0175 17.8914ZM48.2456 28.2514L43.7697 25.6382L40.53 23.7471V32.6603L45.0048 35.2725L48.2456 37.1647V28.2514ZM30.4981 48.3376L41.8111 41.7882L47.4663 38.5157L39.7592 34.016L30.8853 39.1966L22.7976 43.918L30.4981 48.3376Z" fill="#FF2D20"/>
</svg>
