<svg width="71" height="71" viewBox="0 0 71 71" fill="none" xmlns="http://www.w3.org/2000/svg">
<path d="M53.6201 0.897339H16.4326C7.3717 0.897339 0.0263672 8.24267 0.0263672 17.3036V54.4911C0.0263672 63.552 7.3717 70.8973 16.4326 70.8973H53.6201C62.681 70.8973 70.0264 63.552 70.0264 54.4911V17.3036C70.0264 8.24267 62.681 0.897339 53.6201 0.897339Z" fill="#242938"/>
<path d="M13.468 28.3084H21.2358C23.5157 28.3277 25.1679 28.9847 26.1921 30.2793C27.2163 31.5737 27.5544 33.3418 27.2066 35.5834C27.0713 36.6075 26.7718 37.6123 26.3081 38.5978C25.8637 39.5833 25.2453 40.4721 24.4531 41.2644C23.4869 42.269 22.4532 42.9066 21.3518 43.1773C20.2502 43.4479 19.1101 43.5831 17.9316 43.5831H14.4535L13.3521 49.0902H9.32324L13.468 28.3084ZM16.8592 31.6126L15.1201 40.3079C15.2361 40.3272 15.352 40.3369 15.4679 40.3369H15.8737C17.7289 40.3562 19.2747 40.1726 20.5112 39.7862C21.7479 39.3804 22.5788 37.9698 23.0039 35.5544C23.3517 33.5255 23.0039 32.3565 21.9604 32.0473C20.9363 31.7384 19.6513 31.5934 18.1055 31.6126C17.8738 31.6319 17.6516 31.6416 17.4389 31.6416H16.8302L16.8592 31.6126ZM31.796 22.7723H35.7958L34.6654 28.3084H38.2595C40.2302 28.3472 41.6988 28.753 42.6651 29.5257C43.6506 30.2986 43.9404 31.7672 43.5346 33.9313L41.5927 43.5831H37.5349L39.3899 34.3661C39.5829 33.3999 39.525 32.714 39.216 32.3082C38.907 31.9024 38.2404 31.6995 37.2161 31.6995L33.9988 31.6705L31.6221 43.5831H27.6222L31.796 22.7723ZM47.8298 28.3084H55.5976C57.8775 28.3277 59.5296 28.9847 60.5539 30.2793C61.5781 31.5737 61.9162 33.3418 61.5684 35.5834C61.4331 36.6075 61.1336 37.6123 60.6699 38.5978C60.2255 39.5833 59.6071 40.4721 58.8149 41.2644C57.8487 42.269 56.815 42.9066 55.7136 43.1773C54.612 43.4479 53.4719 43.5831 52.2934 43.5831H48.8153L47.7139 49.0902H43.685L47.8298 28.3084ZM51.221 31.6126L49.4819 40.3079C49.5979 40.3272 49.7138 40.3369 49.8297 40.3369H50.2355C52.0907 40.3562 53.6365 40.1726 54.873 39.7862C56.1097 39.3804 56.9406 37.9698 57.3657 35.5544C57.7135 33.5255 57.3657 32.3565 56.3222 32.0473C55.2981 31.7384 54.0131 31.5934 52.4673 31.6126C52.2354 31.6319 52.0132 31.6416 51.8007 31.6416H51.192L51.221 31.6126Z" fill="white"/>
</svg>
