<svg width="71" height="71" viewBox="0 0 71 71" fill="none" xmlns="http://www.w3.org/2000/svg">
<path d="M53.8518 0.897339H16.6643C7.60338 0.897339 0.258057 8.24267 0.258057 17.3036V54.4911C0.258057 63.552 7.60338 70.8973 16.6643 70.8973H53.8518C62.9127 70.8973 70.2581 63.552 70.2581 54.4911V17.3036C70.2581 8.24267 62.9127 0.897339 53.8518 0.897339Z" fill="#0277BD"/>
<path d="M14.9561 28.966L15.7387 37.7001H35.2843V28.966H14.9561ZM35.284 11.288H13.3831L14.1771 20.0221H35.284V11.288ZM35.284 60.7367V51.6495L35.2458 51.6596L25.5185 49.0333L24.8967 42.0672H16.1289L17.3525 55.7812L35.2438 60.7479L35.284 60.7367Z" fill="#EBEBEB"/>
<path d="M46.009 37.7001L44.9951 49.0275L35.2539 51.6569V60.7435L53.1594 55.7812L53.2907 54.3054L55.3431 31.3115L55.5561 28.966L57.133 11.288H35.2539V20.0221H47.5611L46.7664 28.966H35.2539V37.7001H46.009Z" fill="white"/>
</svg>
