<svg width="70" height="71" viewBox="0 0 70 71" fill="none" xmlns="http://www.w3.org/2000/svg">
<path d="M53.5938 0.775879H16.4062C7.34533 0.775879 0 8.12121 0 17.1821V54.3696C0 63.4305 7.34533 70.7759 16.4062 70.7759H53.5938C62.6547 70.7759 70 63.4305 70 54.3696V17.1821C70 8.12121 62.6547 0.775879 53.5938 0.775879Z" fill="#242938"/>
<path d="M35.0002 40.9578C37.8177 40.9578 40.1014 38.6737 40.1014 35.8565C40.1014 33.0393 37.8177 30.7552 35.0002 30.7552C32.1827 30.7552 29.8989 33.0393 29.8989 35.8565C29.8989 38.6737 32.183 40.9578 35.0002 40.9578Z" fill="#00D8FF"/>
<path d="M35.0005 25.4845C41.8496 25.4845 48.2122 26.4672 53.0097 28.1191C58.7899 30.1089 62.3438 33.1252 62.3438 35.8565C62.3438 38.7027 58.5774 41.9072 52.3701 43.9637C47.6774 45.5184 41.5021 46.33 35.0005 46.33C28.3347 46.33 22.0224 45.5682 17.2766 43.9464C11.2725 41.8943 7.65625 38.6486 7.65625 35.8565C7.65625 33.1473 11.0496 30.1543 16.7486 28.1675C21.5638 26.4886 28.0834 25.4845 34.9995 25.4845H35.0005Z" stroke="#00D8FF" stroke-width="0.556938"/>
<path d="M25.9713 30.7003C29.3931 24.7673 33.4227 19.7464 37.2503 16.416C41.8615 12.4027 46.2502 10.831 48.616 12.1952C51.0816 13.617 51.976 18.481 50.6566 24.8854C49.66 29.7272 47.2772 35.4819 44.0291 41.1142C40.6989 46.8886 36.8858 51.9762 33.1104 55.2761C28.3332 59.452 23.7146 60.9633 21.296 59.5685C18.9491 58.2161 18.0517 53.7806 19.1777 47.8511C20.129 42.841 22.5164 36.6916 25.9702 30.7003H25.9713Z" stroke="#00D8FF" stroke-width="0.556938"/>
<path d="M25.9799 41.1293C22.5485 35.2028 20.2123 29.203 19.2372 24.2237C18.0633 18.2242 18.8932 13.6373 21.2571 12.269C23.7205 10.8428 28.3807 12.4971 33.2703 16.8387C36.9672 20.1211 40.7633 25.0585 44.0208 30.6853C47.3605 36.4543 49.8636 42.299 50.8373 47.2176C52.0694 53.4422 51.0722 58.1981 48.6558 59.5967C46.3114 60.954 42.0208 59.5171 37.446 55.5802C33.5807 52.2541 29.4452 47.1148 25.9799 41.1293Z" stroke="#00D8FF" stroke-width="0.556938"/>
</svg>
