<svg width="70" height="71" viewBox="0 0 70 71" fill="none" xmlns="http://www.w3.org/2000/svg">
<path d="M53.5938 0.775879H16.4062C7.34533 0.775879 0 8.12121 0 17.1821V54.3696C0 63.4305 7.34533 70.7759 16.4062 70.7759H53.5938C62.6547 70.7759 70 63.4305 70 54.3696V17.1821C70 8.12121 62.6547 0.775879 53.5938 0.775879Z" fill="#F0DB4F"/>
<path d="M18.4055 59.2729L23.7622 56.0311C24.7958 57.8634 25.7359 59.4138 27.9909 59.4138C30.1524 59.4138 31.5152 58.5683 31.5152 55.2794V32.9127H38.0936V55.3724C38.0936 62.1856 34.0998 65.2869 28.2728 65.2869C23.0105 65.2869 19.9559 62.5616 18.4053 59.2724M41.6666 58.568L47.0227 55.467C48.4328 57.7696 50.2654 59.4611 53.5073 59.4611C56.2332 59.4611 57.9711 58.0983 57.9711 56.2186C57.9711 53.9633 56.1856 53.1643 53.1783 51.8491L51.5341 51.1439C46.7881 49.1238 43.6397 46.5863 43.6397 41.2296C43.6397 36.2957 47.399 32.5365 53.2727 32.5365C57.4546 32.5365 60.4619 33.9934 62.6231 37.7993L57.5014 41.0885C56.3734 39.0681 55.1523 38.2694 53.2727 38.2694C51.346 38.2694 50.1243 39.4911 50.1243 41.0885C50.1243 43.0619 51.346 43.8609 54.1652 45.0829L55.8096 45.7876C61.4011 48.1842 64.5495 50.6271 64.5495 56.1246C64.5495 62.0456 59.8978 65.2875 53.6484 65.2875C47.54 65.2875 43.593 62.3743 41.6666 58.568Z" fill="#323330"/>
</svg>
